# xmcd CD database file
#
# Track frame offsets:
#	150
#	16552
#	48505
#
# Disc length: 1184 seconds
#
# Revision: 0
# Processed by: cddbd v1.5PL3 Copyright (c) Steve Scherf et al.
# Submitted via: CDex 1.50
#
DISCID=16049e03
DTITLE=spymaster and eric nouhan - spontaneous
DYEAR=1900
DGENRE=Jazz
TTITLE0=radio mix
TTITLE1=12 inch mix
TTITLE2=sax mix
EXTD=
EXTT0=
EXTT1=
EXTT2=
PLAYORDER=
